<mxfile host="app.diagrams.net" agent="Mozilla/5.0 (Windows NT 10.0; Win64; x64) AppleWebKit/537.36 (KHTML, like Gecko) Chrome/133.0.0.0 Safari/537.36" version="26.0.16">
  <diagram id="h0RZEv_qrM-fLa80bZqm" name="PÃ¡gina-1">
    <mxGraphModel dx="1434" dy="772" grid="1" gridSize="10" guides="1" tooltips="1" connect="1" arrows="1" fold="1" page="1" pageScale="1" pageWidth="827" pageHeight="1169" math="0" shadow="0">
      <root>
        <mxCell id="0" />
        <mxCell id="1" parent="0" />
        <mxCell id="DOu57zEuCssn2X2KWgCv-3" style="edgeStyle=orthogonalEdgeStyle;rounded=0;orthogonalLoop=1;jettySize=auto;html=1;exitX=1;exitY=0.5;exitDx=0;exitDy=0;" edge="1" parent="1" source="DOu57zEuCssn2X2KWgCv-1" target="DOu57zEuCssn2X2KWgCv-2">
          <mxGeometry relative="1" as="geometry">
            <mxPoint x="230" y="270" as="sourcePoint" />
          </mxGeometry>
        </mxCell>
        <mxCell id="DOu57zEuCssn2X2KWgCv-1" value="Script Python&lt;div&gt;Consulta API Yfinance Extructura 5 tablas para Insertar en base de dato PostgreSQL&amp;nbsp;&lt;span style=&quot;background-color: transparent; color: light-dark(rgb(0, 0, 0), rgb(255, 255, 255));&quot;&gt;Landing Zone&lt;/span&gt;&lt;/div&gt;" style="rounded=0;whiteSpace=wrap;html=1;" vertex="1" parent="1">
          <mxGeometry x="40" y="235" width="200" height="80" as="geometry" />
        </mxCell>
        <mxCell id="DOu57zEuCssn2X2KWgCv-14" style="edgeStyle=orthogonalEdgeStyle;rounded=0;orthogonalLoop=1;jettySize=auto;html=1;" edge="1" parent="1" source="DOu57zEuCssn2X2KWgCv-2" target="DOu57zEuCssn2X2KWgCv-7">
          <mxGeometry relative="1" as="geometry" />
        </mxCell>
        <mxCell id="DOu57zEuCssn2X2KWgCv-2" value="Postgres&lt;div&gt;Landing ZoneZone&lt;/div&gt;" style="shape=cylinder3;whiteSpace=wrap;html=1;boundedLbl=1;backgroundOutline=1;size=15;" vertex="1" parent="1">
          <mxGeometry x="260" y="240" width="115" height="70" as="geometry" />
        </mxCell>
        <mxCell id="DOu57zEuCssn2X2KWgCv-17" style="edgeStyle=orthogonalEdgeStyle;rounded=0;orthogonalLoop=1;jettySize=auto;html=1;" edge="1" parent="1" source="DOu57zEuCssn2X2KWgCv-4">
          <mxGeometry relative="1" as="geometry">
            <mxPoint x="145" y="190" as="targetPoint" />
            <Array as="points">
              <mxPoint x="140" y="190" />
            </Array>
          </mxGeometry>
        </mxCell>
        <mxCell id="DOu57zEuCssn2X2KWgCv-4" value="AirFlow" style="ellipse;whiteSpace=wrap;html=1;" vertex="1" parent="1">
          <mxGeometry x="80" y="90" width="120" height="80" as="geometry" />
        </mxCell>
        <mxCell id="DOu57zEuCssn2X2KWgCv-6" value="ClickHouse&lt;div&gt;Row, transformed, Validation (DBT)&lt;/div&gt;" style="shape=cylinder3;whiteSpace=wrap;html=1;boundedLbl=1;backgroundOutline=1;size=15;" vertex="1" parent="1">
          <mxGeometry x="610" y="230" width="180" height="90" as="geometry" />
        </mxCell>
        <mxCell id="DOu57zEuCssn2X2KWgCv-15" style="edgeStyle=orthogonalEdgeStyle;rounded=0;orthogonalLoop=1;jettySize=auto;html=1;" edge="1" parent="1" source="DOu57zEuCssn2X2KWgCv-7" target="DOu57zEuCssn2X2KWgCv-6">
          <mxGeometry relative="1" as="geometry" />
        </mxCell>
        <mxCell id="DOu57zEuCssn2X2KWgCv-7" value="Airbyte&lt;div&gt;Conexion (Origen: Posgres, Destino: ClickHouse)&lt;/div&gt;" style="rounded=0;whiteSpace=wrap;html=1;" vertex="1" parent="1">
          <mxGeometry x="410" y="245" width="160" height="60" as="geometry" />
        </mxCell>
        <mxCell id="DOu57zEuCssn2X2KWgCv-9" value="" style="endArrow=none;html=1;rounded=0;" edge="1" parent="1">
          <mxGeometry width="50" height="50" relative="1" as="geometry">
            <mxPoint x="140" y="190" as="sourcePoint" />
            <mxPoint x="490" y="190" as="targetPoint" />
          </mxGeometry>
        </mxCell>
        <mxCell id="DOu57zEuCssn2X2KWgCv-11" value="" style="endArrow=classic;html=1;rounded=0;entryX=0.5;entryY=0;entryDx=0;entryDy=0;" edge="1" parent="1" target="DOu57zEuCssn2X2KWgCv-1">
          <mxGeometry width="50" height="50" relative="1" as="geometry">
            <mxPoint x="140" y="190" as="sourcePoint" />
            <mxPoint x="142.5" y="230" as="targetPoint" />
          </mxGeometry>
        </mxCell>
        <mxCell id="DOu57zEuCssn2X2KWgCv-13" value="" style="endArrow=classic;html=1;rounded=0;entryX=0.5;entryY=0;entryDx=0;entryDy=0;" edge="1" parent="1" target="DOu57zEuCssn2X2KWgCv-7">
          <mxGeometry width="50" height="50" relative="1" as="geometry">
            <mxPoint x="490" y="190" as="sourcePoint" />
            <mxPoint x="440" y="370" as="targetPoint" />
          </mxGeometry>
        </mxCell>
      </root>
    </mxGraphModel>
  </diagram>
</mxfile>
